<svg width="264" height="96" viewBox="0 0 264 96" fill="none" xmlns="http://www.w3.org/2000/svg">
  <g transform="translate(0,24)" stroke="#1A1714" stroke-width="3.2" stroke-linecap="butt" fill="none">
    <line x1="1.6" y1="0" x2="1.6" y2="72" />
    <line x1="0" y1="0" x2="44" y2="0" />
    <line x1="0" y1="31" x2="32" y2="31" />
  </g>

  <g transform="translate(64,24)" stroke="#1A1714" stroke-width="3.2" stroke-linecap="butt" fill="none">
    <line x1="0" y1="0" x2="19" y2="33" />
    <line x1="38" y1="0" x2="19" y2="33" />
    <line x1="19" y1="33" x2="19" y2="72" />
  </g>

  <g transform="translate(122,0)">
    <line x1="0" y1="0" x2="46" y2="96" stroke="#1A1714" stroke-width="13" stroke-linecap="square" />
    <line x1="46" y1="0" x2="0" y2="96" stroke="#1A1714" stroke-width="13" stroke-linecap="square" />
  </g>

  <g transform="translate(188,24)" stroke="#1A1714" stroke-width="3.2" stroke-linecap="butt" fill="none">
    <line x1="5" y1="0" x2="5" y2="72" />
  </g>

  <g transform="translate(218,24)" stroke="#1A1714" stroke-width="3.2" stroke-linecap="butt" fill="none">
    <line x1="0" y1="0" x2="0" y2="72" />
    <line x1="46" y1="0" x2="46" y2="72" />
    <line x1="0" y1="0" x2="46" y2="0" />
    <line x1="0" y1="72" x2="46" y2="72" />
  </g>
</svg>
